<svg width="18" height="18" viewBox="0 0 18 18" fill="none" xmlns="http://www.w3.org/2000/svg">
<path d="M17.6627 6.74342C17.5167 6.30799 17.1476 5.99565 16.7003 5.92762L12.1595 5.25036L10.1155 0.930771C9.91236 0.502771 9.49674 0.236816 9.03017 0.236816C8.5636 0.236816 8.14797 0.502771 7.94482 0.930771L5.93067 5.2349L1.36002 5.92762C0.912707 5.99565 0.544297 6.30799 0.397678 6.74342C0.247953 7.19059 0.358538 7.67549 0.686567 8.00886L3.99232 11.3772L3.21139 16.1248C3.13373 16.5992 3.32633 17.0637 3.71524 17.3364C4.08924 17.6005 4.5701 17.6265 4.97019 17.4069L9.00159 15.1655L13.0901 17.4069C13.4915 17.6265 13.9711 17.5993 14.3451 17.3364C14.734 17.0637 14.9272 16.5992 14.8489 16.1248L14.0668 11.371L17.3738 8.00886C17.7018 7.67549 17.8124 7.19059 17.6627 6.74342Z" fill="#FFCF6D"/>
</svg>
